<svg id="visual" viewBox="0 0 900 600" width="900" height="600" xmlns="http://www.w3.org/2000/svg" xmlns:xlink="http://www.w3.org/1999/xlink" version="1.1"><rect x="0" y="0" width="900" height="600" fill="#060336"></rect><path d="M0 112L25 108C50 104 100 96 150 108.3C200 120.7 250 153.3 300 156.3C350 159.3 400 132.7 450 119C500 105.3 550 104.7 600 115.2C650 125.7 700 147.3 750 148.5C800 149.7 850 130.3 875 120.7L900 111L900 601L875 601C850 601 800 601 750 601C700 601 650 601 600 601C550 601 500 601 450 601C400 601 350 601 300 601C250 601 200 601 150 601C100 601 50 601 25 601L0 601Z" fill="#060336"></path><path d="M0 204L25 196.8C50 189.7 100 175.3 150 170.2C200 165 250 169 300 169.3C350 169.7 400 166.3 450 159.3C500 152.3 550 141.7 600 151.8C650 162 700 193 750 205C800 217 850 210 875 206.5L900 203L900 601L875 601C850 601 800 601 750 601C700 601 650 601 600 601C550 601 500 601 450 601C400 601 350 601 300 601C250 601 200 601 150 601C100 601 50 601 25 601L0 601Z" fill="#07073c"></path><path d="M0 207L25 207.2C50 207.3 100 207.7 150 208.7C200 209.7 250 211.3 300 217.2C350 223 400 233 450 235.3C500 237.7 550 232.3 600 220.7C650 209 700 191 750 189.5C800 188 850 203 875 210.5L900 218L900 601L875 601C850 601 800 601 750 601C700 601 650 601 600 601C550 601 500 601 450 601C400 601 350 601 300 601C250 601 200 601 150 601C100 601 50 601 25 601L0 601Z" fill="#0a0942"></path><path d="M0 214L25 221.2C50 228.3 100 242.7 150 252.2C200 261.7 250 266.3 300 262.2C350 258 400 245 450 250C500 255 550 278 600 278C650 278 700 255 750 240C800 225 850 218 875 214.5L900 211L900 601L875 601C850 601 800 601 750 601C700 601 650 601 600 601C550 601 500 601 450 601C400 601 350 601 300 601C250 601 200 601 150 601C100 601 50 601 25 601L0 601Z" fill="#0f0b49"></path><path d="M0 317L25 312C50 307 100 297 150 295.2C200 293.3 250 299.7 300 307.8C350 316 400 326 450 326.7C500 327.3 550 318.7 600 318.8C650 319 700 328 750 323.8C800 319.7 850 302.3 875 293.7L900 285L900 601L875 601C850 601 800 601 750 601C700 601 650 601 600 601C550 601 500 601 450 601C400 601 350 601 300 601C250 601 200 601 150 601C100 601 50 601 25 601L0 601Z" fill="#150b4f"></path><path d="M0 304L25 306.2C50 308.3 100 312.7 150 314C200 315.3 250 313.7 300 321.2C350 328.7 400 345.3 450 351.2C500 357 550 352 600 353C650 354 700 361 750 358.8C800 356.7 850 345.3 875 339.7L900 334L900 601L875 601C850 601 800 601 750 601C700 601 650 601 600 601C550 601 500 601 450 601C400 601 350 601 300 601C250 601 200 601 150 601C100 601 50 601 25 601L0 601Z" fill="#1b0b55"></path><path d="M0 392L25 394.2C50 396.3 100 400.7 150 398.7C200 396.7 250 388.3 300 384.7C350 381 400 382 450 381C500 380 550 377 600 371.8C650 366.7 700 359.3 750 358C800 356.7 850 361.3 875 363.7L900 366L900 601L875 601C850 601 800 601 750 601C700 601 650 601 600 601C550 601 500 601 450 601C400 601 350 601 300 601C250 601 200 601 150 601C100 601 50 601 25 601L0 601Z" fill="#220a5b"></path><path d="M0 409L25 414.2C50 419.3 100 429.7 150 431.5C200 433.3 250 426.7 300 423C350 419.3 400 418.7 450 416.7C500 414.7 550 411.3 600 407.3C650 403.3 700 398.7 750 398.5C800 398.3 850 402.7 875 404.8L900 407L900 601L875 601C850 601 800 601 750 601C700 601 650 601 600 601C550 601 500 601 450 601C400 601 350 601 300 601C250 601 200 601 150 601C100 601 50 601 25 601L0 601Z" fill="#290961"></path><path d="M0 462L25 458C50 454 100 446 150 441.7C200 437.3 250 436.7 300 437.7C350 438.7 400 441.3 450 445.5C500 449.7 550 455.3 600 455.8C650 456.3 700 451.7 750 450.2C800 448.7 850 450.3 875 451.2L900 452L900 601L875 601C850 601 800 601 750 601C700 601 650 601 600 601C550 601 500 601 450 601C400 601 350 601 300 601C250 601 200 601 150 601C100 601 50 601 25 601L0 601Z" fill="#300767"></path><path d="M0 498L25 502.8C50 507.7 100 517.3 150 514.2C200 511 250 495 300 491.2C350 487.3 400 495.7 450 500.5C500 505.3 550 506.7 600 507C650 507.3 700 506.7 750 503.2C800 499.7 850 493.3 875 490.2L900 487L900 601L875 601C850 601 800 601 750 601C700 601 650 601 600 601C550 601 500 601 450 601C400 601 350 601 300 601C250 601 200 601 150 601C100 601 50 601 25 601L0 601Z" fill="#37046c"></path><path d="M0 540L25 541.7C50 543.3 100 546.7 150 550.7C200 554.7 250 559.3 300 555.5C350 551.7 400 539.3 450 538.3C500 537.3 550 547.7 600 553C650 558.3 700 558.7 750 556.8C800 555 850 551 875 549L900 547L900 601L875 601C850 601 800 601 750 601C700 601 650 601 600 601C550 601 500 601 450 601C400 601 350 601 300 601C250 601 200 601 150 601C100 601 50 601 25 601L0 601Z" fill="#3f0072"></path></svg>