<svg id="visual" viewBox="0 0 900 600" width="900" height="600" xmlns="http://www.w3.org/2000/svg" xmlns:xlink="http://www.w3.org/1999/xlink" version="1.1"><path d="M0 43L16.7 47C33.3 51 66.7 59 100 69C133.3 79 166.7 91 200 90C233.3 89 266.7 75 300 75C333.3 75 366.7 89 400 95C433.3 101 466.7 99 500 95C533.3 91 566.7 85 600 82C633.3 79 666.7 79 700 82C733.3 85 766.7 91 800 87C833.3 83 866.7 69 883.3 62L900 55L900 0L883.3 0C866.7 0 833.3 0 800 0C766.7 0 733.3 0 700 0C666.7 0 633.3 0 600 0C566.7 0 533.3 0 500 0C466.7 0 433.3 0 400 0C366.7 0 333.3 0 300 0C266.7 0 233.3 0 200 0C166.7 0 133.3 0 100 0C66.7 0 33.3 0 16.7 0L0 0Z" fill="#180528"></path><path d="M0 109L16.7 107C33.3 105 66.7 101 100 111C133.3 121 166.7 145 200 151C233.3 157 266.7 145 300 148C333.3 151 366.7 169 400 175C433.3 181 466.7 175 500 172C533.3 169 566.7 169 600 164C633.3 159 666.7 149 700 151C733.3 153 766.7 167 800 165C833.3 163 866.7 145 883.3 136L900 127L900 53L883.3 60C866.7 67 833.3 81 800 85C766.7 89 733.3 83 700 80C666.7 77 633.3 77 600 80C566.7 83 533.3 89 500 93C466.7 97 433.3 99 400 93C366.7 87 333.3 73 300 73C266.7 73 233.3 87 200 88C166.7 89 133.3 77 100 67C66.7 57 33.3 49 16.7 45L0 41Z" fill="#19062b"></path><path d="M0 151L16.7 145C33.3 139 66.7 127 100 137C133.3 147 166.7 179 200 187C233.3 195 266.7 179 300 179C333.3 179 366.7 195 400 200C433.3 205 466.7 199 500 195C533.3 191 566.7 189 600 187C633.3 185 666.7 183 700 190C733.3 197 766.7 213 800 212C833.3 211 866.7 193 883.3 184L900 175L900 125L883.3 134C866.7 143 833.3 161 800 163C766.7 165 733.3 151 700 149C666.7 147 633.3 157 600 162C566.7 167 533.3 167 500 170C466.7 173 433.3 179 400 173C366.7 167 333.3 149 300 146C266.7 143 233.3 155 200 149C166.7 143 133.3 119 100 109C66.7 99 33.3 103 16.7 105L0 107Z" fill="#1a062e"></path><path d="M0 175L16.7 169C33.3 163 66.7 151 100 167C133.3 183 166.7 227 200 239C233.3 251 266.7 231 300 229C333.3 227 366.7 243 400 250C433.3 257 466.7 255 500 250C533.3 245 566.7 237 600 234C633.3 231 666.7 233 700 237C733.3 241 766.7 247 800 242C833.3 237 866.7 221 883.3 213L900 205L900 173L883.3 182C866.7 191 833.3 209 800 210C766.7 211 733.3 195 700 188C666.7 181 633.3 183 600 185C566.7 187 533.3 189 500 193C466.7 197 433.3 203 400 198C366.7 193 333.3 177 300 177C266.7 177 233.3 193 200 185C166.7 177 133.3 145 100 135C66.7 125 33.3 137 16.7 143L0 149Z" fill="#1c0632"></path><path d="M0 259L16.7 251C33.3 243 66.7 227 100 234C133.3 241 166.7 271 200 281C233.3 291 266.7 281 300 283C333.3 285 366.7 299 400 301C433.3 303 466.7 293 500 291C533.3 289 566.7 295 600 295C633.3 295 666.7 289 700 293C733.3 297 766.7 311 800 307C833.3 303 866.7 281 883.3 270L900 259L900 203L883.3 211C866.7 219 833.3 235 800 240C766.7 245 733.3 239 700 235C666.7 231 633.3 229 600 232C566.7 235 533.3 243 500 248C466.7 253 433.3 255 400 248C366.7 241 333.3 225 300 227C266.7 229 233.3 249 200 237C166.7 225 133.3 181 100 165C66.7 149 33.3 161 16.7 167L0 173Z" fill="#1d0635"></path><path d="M0 289L16.7 283C33.3 277 66.7 265 100 273C133.3 281 166.7 309 200 316C233.3 323 266.7 309 300 312C333.3 315 366.7 335 400 341C433.3 347 466.7 339 500 334C533.3 329 566.7 327 600 325C633.3 323 666.7 321 700 326C733.3 331 766.7 343 800 339C833.3 335 866.7 315 883.3 305L900 295L900 257L883.3 268C866.7 279 833.3 301 800 305C766.7 309 733.3 295 700 291C666.7 287 633.3 293 600 293C566.7 293 533.3 287 500 289C466.7 291 433.3 301 400 299C366.7 297 333.3 283 300 281C266.7 279 233.3 289 200 279C166.7 269 133.3 239 100 232C66.7 225 33.3 241 16.7 249L0 257Z" fill="#250b42"></path><path d="M0 415L16.7 419C33.3 423 66.7 431 100 441C133.3 451 166.7 463 200 454C233.3 445 266.7 415 300 412C333.3 409 366.7 433 400 442C433.3 451 466.7 445 500 439C533.3 433 566.7 427 600 427C633.3 427 666.7 433 700 437C733.3 441 766.7 443 800 432C833.3 421 866.7 397 883.3 385L900 373L900 293L883.3 303C866.7 313 833.3 333 800 337C766.7 341 733.3 329 700 324C666.7 319 633.3 321 600 323C566.7 325 533.3 327 500 332C466.7 337 433.3 345 400 339C366.7 333 333.3 313 300 310C266.7 307 233.3 321 200 314C166.7 307 133.3 279 100 271C66.7 263 33.3 275 16.7 281L0 287Z" fill="#2d0e50"></path><path d="M0 433L16.7 439C33.3 445 66.7 457 100 467C133.3 477 166.7 485 200 474C233.3 463 266.7 433 300 431C333.3 429 366.7 455 400 469C433.3 483 466.7 485 500 479C533.3 473 566.7 459 600 454C633.3 449 666.7 453 700 456C733.3 459 766.7 461 800 453C833.3 445 866.7 427 883.3 418L900 409L900 371L883.3 383C866.7 395 833.3 419 800 430C766.7 441 733.3 439 700 435C666.7 431 633.3 425 600 425C566.7 425 533.3 431 500 437C466.7 443 433.3 449 400 440C366.7 431 333.3 407 300 410C266.7 413 233.3 443 200 452C166.7 461 133.3 449 100 439C66.7 429 33.3 421 16.7 417L0 413Z" fill="#36125e"></path><path d="M0 601L16.7 601C33.3 601 66.7 601 100 601C133.3 601 166.7 601 200 601C233.3 601 266.7 601 300 601C333.3 601 366.7 601 400 601C433.3 601 466.7 601 500 601C533.3 601 566.7 601 600 601C633.3 601 666.7 601 700 601C733.3 601 766.7 601 800 601C833.3 601 866.7 601 883.3 601L900 601L900 407L883.3 416C866.7 425 833.3 443 800 451C766.7 459 733.3 457 700 454C666.7 451 633.3 447 600 452C566.7 457 533.3 471 500 477C466.7 483 433.3 481 400 467C366.7 453 333.3 427 300 429C266.7 431 233.3 461 200 472C166.7 483 133.3 475 100 465C66.7 455 33.3 443 16.7 437L0 431Z" fill="#3f166c"></path></svg>