<svg id="visual" viewBox="0 0 900 200" width="900" height="200" xmlns="http://www.w3.org/2000/svg" xmlns:xlink="http://www.w3.org/1999/xlink" version="1.1"><rect x="0" y="0" width="900" height="200" fill="#180528"></rect><path d="M0 111L21.5 112.3C43 113.7 86 116.3 128.8 118.5C171.7 120.7 214.3 122.3 257.2 124.3C300 126.3 343 128.7 385.8 130.7C428.7 132.7 471.3 134.3 514.2 137.7C557 141 600 146 642.8 149.3C685.7 152.7 728.3 154.3 771.2 155.7C814 157 857 158 878.5 158.5L900 159L900 0L878.5 0C857 0 814 0 771.2 0C728.3 0 685.7 0 642.8 0C600 0 557 0 514.2 0C471.3 0 428.7 0 385.8 0C343 0 300 0 257.2 0C214.3 0 171.7 0 128.8 0C86 0 43 0 21.5 0L0 0Z" fill="#3c0651"></path><path d="M0 132L21.5 126.7C43 121.3 86 110.7 128.8 103.8C171.7 97 214.3 94 257.2 96.3C300 98.7 343 106.3 385.8 114.7C428.7 123 471.3 132 514.2 134.2C557 136.3 600 131.7 642.8 129.5C685.7 127.3 728.3 127.7 771.2 126.7C814 125.7 857 123.3 878.5 122.2L900 121L900 0L878.5 0C857 0 814 0 771.2 0C728.3 0 685.7 0 642.8 0C600 0 557 0 514.2 0C471.3 0 428.7 0 385.8 0C343 0 300 0 257.2 0C214.3 0 171.7 0 128.8 0C86 0 43 0 21.5 0L0 0Z" fill="#31094d"></path><path d="M0 82L21.5 88.3C43 94.7 86 107.3 128.8 107.3C171.7 107.3 214.3 94.7 257.2 87.7C300 80.7 343 79.3 385.8 82.7C428.7 86 471.3 94 514.2 97.8C557 101.7 600 101.3 642.8 101.8C685.7 102.3 728.3 103.7 771.2 99.7C814 95.7 857 86.3 878.5 81.7L900 77L900 0L878.5 0C857 0 814 0 771.2 0C728.3 0 685.7 0 642.8 0C600 0 557 0 514.2 0C471.3 0 428.7 0 385.8 0C343 0 300 0 257.2 0C214.3 0 171.7 0 128.8 0C86 0 43 0 21.5 0L0 0Z" fill="#270a48"></path><path d="M0 91L21.5 87.2C43 83.3 86 75.7 128.8 71C171.7 66.3 214.3 64.7 257.2 69.7C300 74.7 343 86.3 385.8 91.2C428.7 96 471.3 94 514.2 93C557 92 600 92 642.8 93.7C685.7 95.3 728.3 98.7 771.2 96.7C814 94.7 857 87.3 878.5 83.7L900 80L900 0L878.5 0C857 0 814 0 771.2 0C728.3 0 685.7 0 642.8 0C600 0 557 0 514.2 0C471.3 0 428.7 0 385.8 0C343 0 300 0 257.2 0C214.3 0 171.7 0 128.8 0C86 0 43 0 21.5 0L0 0Z" fill="#1d0b43"></path><path d="M0 73L21.5 73.8C43 74.7 86 76.3 128.8 71.5C171.7 66.7 214.3 55.3 257.2 50.2C300 45 343 46 385.8 49.3C428.7 52.7 471.3 58.3 514.2 63.8C557 69.3 600 74.7 642.8 75.8C685.7 77 728.3 74 771.2 69.2C814 64.3 857 57.7 878.5 54.3L900 51L900 0L878.5 0C857 0 814 0 771.2 0C728.3 0 685.7 0 642.8 0C600 0 557 0 514.2 0C471.3 0 428.7 0 385.8 0C343 0 300 0 257.2 0C214.3 0 171.7 0 128.8 0C86 0 43 0 21.5 0L0 0Z" fill="#130a3d"></path><path d="M0 45L21.5 46.7C43 48.3 86 51.7 128.8 51.8C171.7 52 214.3 49 257.2 46.5C300 44 343 42 385.8 39.3C428.7 36.7 471.3 33.3 514.2 35.3C557 37.3 600 44.7 642.8 48C685.7 51.3 728.3 50.7 771.2 50.8C814 51 857 52 878.5 52.5L900 53L900 0L878.5 0C857 0 814 0 771.2 0C728.3 0 685.7 0 642.8 0C600 0 557 0 514.2 0C471.3 0 428.7 0 385.8 0C343 0 300 0 257.2 0C214.3 0 171.7 0 128.8 0C86 0 43 0 21.5 0L0 0Z" fill="#0b0737"></path><path d="M0 29L21.5 28.3C43 27.7 86 26.3 128.8 27.3C171.7 28.3 214.3 31.7 257.2 31.5C300 31.3 343 27.7 385.8 27.5C428.7 27.3 471.3 30.7 514.2 28.7C557 26.7 600 19.3 642.8 16.3C685.7 13.3 728.3 14.7 771.2 15.3C814 16 857 16 878.5 16L900 16L900 0L878.5 0C857 0 814 0 771.2 0C728.3 0 685.7 0 642.8 0C600 0 557 0 514.2 0C471.3 0 428.7 0 385.8 0C343 0 300 0 257.2 0C214.3 0 171.7 0 128.8 0C86 0 43 0 21.5 0L0 0Z" fill="#050231"></path></svg>